<svg xmlns="http://www.w3.org/2000/svg" viewBox="0 0 480 400" width="480" height="400" role="img" aria-labelledby="stackNarrowTitle">
  <title id="stackNarrowTitle">Four layers I build across: Interface (React, Angular, Compose, Chrome MV3); Orchestration (scheduling, retries, diagnostics, approvals); Inference (cloud provider API, on-device via MediaPipe, compatible offline); Data (stays on the device unless you allow it).</title>

  <rect x="240" y="200" width="240" height="200" fill="#B0451B" opacity="0.05"/>

  <g fill="#B0451B">
    <rect x="20" y="24" width="20" height="2"/>
    <rect x="260" y="24" width="20" height="2"/>
    <rect x="20" y="224" width="20" height="2"/>
    <rect x="260" y="224" width="20" height="2"/>
  </g>

  <g font-family="ui-monospace, SFMono-Regular, Menlo, Consolas, monospace" font-size="12" letter-spacing="1.2" fill="#B0451B">
    <text x="20" y="56">01</text>
    <text x="260" y="56">02</text>
    <text x="20" y="256">03</text>
    <text x="260" y="256">04</text>
  </g>

  <g font-family="-apple-system, BlinkMacSystemFont, 'Segoe UI', Inter, Roboto, Helvetica, Arial, sans-serif" font-size="21" font-weight="600" letter-spacing="-0.3" fill="#0B0D11">
    <text x="20" y="88">Interface</text>
    <text x="260" y="88">Orchestration</text>
    <text x="20" y="288">Inference</text>
    <text x="260" y="288">Data</text>
  </g>

  <g font-family="ui-monospace, SFMono-Regular, Menlo, Consolas, monospace" font-size="13.5" letter-spacing="0.5" fill="#5A6472">
    <text x="20" y="118">React · Angular</text>
    <text x="20" y="138">Compose</text>
    <text x="20" y="158">Chrome MV3</text>

    <text x="260" y="118">scheduling</text>
    <text x="260" y="138">retries · diagnostics</text>
    <text x="260" y="158">approval gates</text>

    <text x="20" y="318">cloud provider API</text>
    <text x="20" y="338">on-device (MediaPipe)</text>
    <text x="20" y="358">compatible offline</text>

    <text x="260" y="318">stays on the device</text>
    <text x="260" y="338">unless you allow it</text>
  </g>

  <g fill="#E3E7EC">
    <rect x="240" y="24" width="1" height="352"/>
    <rect x="20" y="200" width="440" height="1"/>
  </g>
</svg>
